<svg width="42" height="9" viewBox="0 0 42 9" fill="none" xmlns="http://www.w3.org/2000/svg">
<path d="M1.24414 8H0.171875V0.230469H1.24414V3.76953H5.38086V0.230469H6.45312V8H5.38086V4.27344H1.24414V8ZM15.0289 8.18164C14.443 8.18164 13.8961 8.07422 13.3883 7.85938C12.8844 7.64453 12.4449 7.35156 12.0699 6.98047C11.6949 6.60547 11.4 6.16992 11.1852 5.67383C10.9703 5.17383 10.8629 4.64062 10.8629 4.07422C10.8629 3.51562 10.9703 2.99219 11.1852 2.50391C11.4 2.01562 11.6949 1.58984 12.0699 1.22656C12.4449 0.863281 12.8844 0.578125 13.3883 0.371094C13.8961 0.160156 14.443 0.0546875 15.0289 0.0546875C15.6148 0.0546875 16.1617 0.160156 16.6695 0.371094C17.1773 0.578125 17.6187 0.863281 17.9937 1.22656C18.3687 1.58984 18.6637 2.01562 18.8785 2.50391C19.0934 2.99219 19.2008 3.51562 19.2008 4.07422C19.2008 4.64062 19.0934 5.17383 18.8785 5.67383C18.6637 6.16992 18.3687 6.60547 17.9937 6.98047C17.6187 7.35156 17.1773 7.64453 16.6695 7.85938C16.1617 8.07422 15.6148 8.18164 15.0289 8.18164ZM15.0289 7.79492C15.4937 7.79492 15.9039 7.70312 16.2594 7.51953C16.6187 7.33203 16.9195 7.07227 17.1617 6.74023C17.4039 6.4082 17.5875 6.01562 17.7125 5.5625C17.8375 5.10938 17.9 4.61328 17.9 4.07422C17.9 3.53906 17.8375 3.04883 17.7125 2.60352C17.5875 2.1582 17.4039 1.77539 17.1617 1.45508C16.9195 1.13086 16.6187 0.880859 16.2594 0.705078C15.9039 0.525391 15.4937 0.435547 15.0289 0.435547C14.5602 0.435547 14.1461 0.525391 13.7867 0.705078C13.4273 0.880859 13.1266 1.13086 12.8844 1.45508C12.6461 1.77539 12.4645 2.1582 12.3395 2.60352C12.2184 3.04883 12.1578 3.53906 12.1578 4.07422C12.1578 4.61328 12.2184 5.10938 12.3395 5.5625C12.4645 6.01562 12.6461 6.4082 12.8844 6.74023C13.1266 7.07227 13.4273 7.33203 13.7867 7.51953C14.1461 7.70312 14.5602 7.79492 15.0289 7.79492ZM23.4758 0.230469H24.7062L27.7707 6.28906C28.1926 5.50781 28.6027 4.74609 29.0012 4.00391C29.1691 3.6875 29.343 3.35938 29.5227 3.01953C29.7023 2.67969 29.8781 2.3457 30.05 2.01758C30.2258 1.68555 30.3918 1.36719 30.548 1.0625C30.7043 0.757812 30.8449 0.480469 30.9699 0.230469H32.0598V8H30.9816V1.63086L27.718 8H27.4719L24.0559 1.36133V8H23.4758V0.230469ZM41.9773 0.230469V0.734375H37.8816V3.51172H40.6238V4.01562H37.8816V7.49609H41.9773V8H36.8094V0.230469H41.9773Z" fill="black"/>
</svg>
